<?xml version="1.0" standalone="no"?>
<!DOCTYPE svg PUBLIC "-//W3C//DTD SVG 20010904//EN"
 "http://www.w3.org/TR/2001/REC-SVG-20010904/DTD/svg10.dtd">
<svg version="1.0" xmlns="http://www.w3.org/2000/svg"
 width="299.000000pt" height="299.000000pt" viewBox="0 0 299.000000 299.000000"
 preserveAspectRatio="xMidYMid meet">
<metadata>
Created by potrace 1.11, written by Peter Selinger 2001-2013
</metadata>
<g transform="translate(0.000000,299.000000) scale(0.100000,-0.100000)"
fill="#000000" stroke="none">
<path d="M1300 2933 c-19 -2 -81 -13 -137 -23 -585 -114 -1063 -615 -1139
-1195 -3 -27 -8 -59 -10 -70 -6 -29 -6 -278 0 -295 3 -8 7 -40 11 -70 12 -114
59 -266 123 -400 206 -436 615 -736 1102 -810 85 -12 304 -12 400 1 229 32
465 128 652 267 321 239 518 574 576 977 14 105 8 335 -13 450 -99 535 -515
985 -1040 1124 -162 43 -364 59 -525 44z"/>
</g>
</svg>
